<?xml version="1.0" encoding="utf-8"?>
<!-- Generator: Adobe Illustrator 24.3.0, SVG Export Plug-In . SVG Version: 6.00 Build 0)  -->
<svg version="1.1" id="b788e214-8c62-4533-b5b0-3b3e1bf4c8d8"
	 xmlns="http://www.w3.org/2000/svg" xmlns:xlink="http://www.w3.org/1999/xlink" x="0px" y="0px" viewBox="0 0 1161.5 792.3"
	 style="enable-background:new 0 0 1161.5 792.3;" xml:space="preserve">
<style type="text/css">
	.st0{fill:#1C1F24;}
	.st1{fill:#F2F2F2;}
	.st2{fill:#2D7AEB;}
	.st3{fill:#CCCCCC;}
	.st4{fill:#FFB8B8;}
	.st5{fill:#D0CDE1;}
</style>
<path class="st0" d="M565.4,39.7H564v-2.4h1c0.4,0,0.7-0.3,0.7-0.7v-12c0-0.4-0.3-0.7-0.7-0.7h-1V17c0-8.1-6.6-14.7-14.7-14.7l0,0
	h-1.5V0.7c0-0.4-0.3-0.7-0.7-0.7H535c-0.4,0-0.7,0.3-0.7,0.7v1.7H315.6c-8.1,0-14.7,6.6-14.7,14.7l0,0v311.8
	c0,8.1,6.6,14.7,14.7,14.7l0,0h233.8c8.1,0,14.7-6.6,14.7-14.7l0,0V53.2h1.3c0.4,0,0.7-0.3,0.7-0.7V40.4
	C566.1,40,565.8,39.7,565.4,39.7L565.4,39.7z"/>
<rect x="313.1" y="11.9" class="st1" width="240.9" height="319.6"/>
<path class="st2" d="M271.3,568.2c2.2,76.8-42.6,104.9-98.9,106.6c-1.3,0-2.6,0.1-3.9,0.1c-2.6,0-5.2,0-7.8-0.1
	c-50.9-2.1-91.2-29.1-93.3-100.6c-2.2-73.9,89.6-169.9,96.5-177l0,0c0.3-0.3,0.4-0.4,0.4-0.4S269,491.5,271.3,568.2z"/>
<path class="st0" d="M168.3,663.2L204,610l-35.7,58.9l0.1,6c-2.6,0-5.2,0-7.8-0.1l1.8-76.9v-0.6l0.1-0.1l0.2-7.3L123.4,533
	l39.1,51.4l0.1,1.5l1.3-58.1l-33.8-59l33.9,48.8l-0.4-120.4v-0.4v0.4l2.2,94.9l30.8-38.6l-30.7,46.7l0.7,52l28.4-50.7l-28.3,58.4
	l0.4,28.9l41.3-70.7l-41.1,80.8L168.3,663.2z"/>
<path class="st0" d="M867,106.3h-1.5V65.5c0-13-10.6-23.6-23.6-23.6l0,0h-86.5c-13,0-23.6,10.6-23.6,23.6l0,0v223.9
	c0,13,10.6,23.6,23.6,23.6l0,0h86.5c13,0,23.6-10.6,23.6-23.6l0,0v-154h1.5V106.3z"/>
<path class="st1" d="M860.5,66.9v223.5c0,9.7-7.9,17.6-17.6,17.6H756c-9.7,0-17.6-7.9-17.6-17.6V66.9c0-9.7,7.9-17.6,17.6-17.6h10.5
	c-1.7,4.3,0.3,9.2,4.6,10.9c1,0.4,2.1,0.6,3.2,0.6h49.5c4.6,0,8.4-3.8,8.4-8.4c0-1.1-0.2-2.2-0.6-3.2h11.3
	C852.6,49.3,860.5,57.2,860.5,66.9z"/>
<rect x="774.3" y="79" class="st3" width="73.4" height="2.7"/>
<rect x="774.3" y="87.6" class="st3" width="73.4" height="2.7"/>
<rect x="774.3" y="96.3" class="st3" width="73.4" height="2.7"/>
<rect x="751.1" y="80.7" class="st3" width="16.6" height="16.6"/>
<rect x="774.3" y="273" class="st3" width="73.4" height="2.7"/>
<rect x="774.3" y="281.6" class="st3" width="73.4" height="2.7"/>
<rect x="774.3" y="290.3" class="st3" width="73.4" height="2.7"/>
<rect x="751.1" y="274.7" class="st3" width="16.6" height="16.6"/>
<path class="st0" d="M839.9,380.6H631.2v-4.3h-94.6v4.3H327c-7.8,0-14.1,6.3-14.1,14.1l0,0v285.8c0,7.8,6.3,14.1,14.1,14.1h512.9
	c7.8,0,14.1-6.3,14.1-14.1V394.7C854,386.9,847.7,380.6,839.9,380.6z"/>
<rect x="331.8" y="405.5" class="st1" width="503.3" height="283.9"/>
<circle class="st2" cx="583" cy="392.6" r="5.2"/>
<path class="st0" d="M868.2,684.3H819v-3.5c0-0.4-0.3-0.7-0.7-0.7l0,0h-16.8c-0.4,0-0.7,0.3-0.7,0.7l0,0v3.5h-10.5v-3.5
	c0-0.4-0.3-0.7-0.7-0.7l0,0h-16.8c-0.4,0-0.7,0.3-0.7,0.7l0,0v3.5h-10.5v-3.5c0-0.4-0.3-0.7-0.7-0.7l0,0H744c-0.4,0-0.7,0.3-0.7,0.7
	l0,0v3.5h-10.5v-3.5c0-0.4-0.3-0.7-0.7-0.7l0,0h-16.8c-0.4,0-0.7,0.3-0.7,0.7l0,0v3.5H704v-3.5c0-0.4-0.3-0.7-0.7-0.7l0,0h-16.8
	c-0.4,0-0.7,0.3-0.7,0.7l0,0v3.5h-10.5v-3.5c0-0.4-0.3-0.7-0.7-0.7l0,0h-16.8c-0.4,0-0.7,0.3-0.7,0.7l0,0v3.5h-10.5v-3.5
	c0-0.4-0.3-0.7-0.7-0.7l0,0H513.8c-0.4,0-0.7,0.3-0.7,0.7l0,0v3.5h-10.5v-3.5c0-0.4-0.3-0.7-0.7-0.7l0,0H485c-0.4,0-0.7,0.3-0.7,0.7
	l0,0v3.5h-10.5v-3.5c0-0.4-0.3-0.7-0.7-0.7l0,0h-16.8c-0.4,0-0.7,0.3-0.7,0.7l0,0v3.5H445v-3.5c0-0.4-0.3-0.7-0.7-0.7l0,0h-16.8
	c-0.4,0-0.7,0.3-0.7,0.7l0,0v3.5h-10.5v-3.5c0-0.4-0.3-0.7-0.7-0.7l0,0h-16.8c-0.4,0-0.7,0.3-0.7,0.7l0,0v3.5h-10.5v-3.5
	c0-0.4-0.3-0.7-0.7-0.7l0,0h-16.8c-0.4,0-0.7,0.3-0.7,0.7l0,0v3.5h-10.5v-3.5c0-0.4-0.3-0.7-0.7-0.7l0,0h-16.8
	c-0.4,0-0.7,0.3-0.7,0.7l0,0v3.5h-32.3c-9.3,0-16.8,7.5-16.8,16.8v7.6c0,9.3,7.5,16.8,16.8,16.8h560c9.3,0,16.8-7.5,16.8-16.8v-7.6
	C885,691.8,877.5,684.3,868.2,684.3L868.2,684.3z"/>
<path class="st0" d="M924.3,309c-8.3-9-19.5-14.9-31.6-16.7l5.2-4.7l-5.8-0.3l-7.1,6.4l6.4,7.1l5.8,0.3l-4.3-4.8
	c26.9,4.3,45.2,29.7,40.9,56.6c-3.9,23.9-24.5,41.5-48.7,41.5v4c29.5,0,53.4-23.9,53.4-53.4C938.4,331.8,933.3,318.9,924.3,309z"/>
<path class="st0" d="M233.7,309c8.3-9,19.5-14.9,31.6-16.7l-5.2-4.7l5.8-0.3l7.1,6.4l-6.4,7.1l-5.8,0.3l4.3-4.8
	c-26.9,4.3-45.2,29.7-40.9,56.6c3.9,23.9,24.5,41.5,48.7,41.5v4c-29.5,0-53.4-23.9-53.4-53.4C219.6,331.8,224.7,318.9,233.7,309z"/>
<rect x="385.3" y="27.8" class="st3" width="141.2" height="5.2"/>
<rect x="385.3" y="44.4" class="st3" width="141.2" height="5.2"/>
<rect x="385.3" y="61" class="st3" width="141.2" height="5.2"/>
<rect x="340.5" y="31" class="st3" width="32" height="32"/>
<rect x="384.8" y="276.8" class="st3" width="141.2" height="5.2"/>
<rect x="384.8" y="293.4" class="st3" width="141.2" height="5.2"/>
<rect x="384.8" y="310" class="st3" width="141.2" height="5.2"/>
<rect x="340" y="280" class="st3" width="32" height="32"/>
<path class="st4" d="M966.5,327.9l31.9-46.3c0,0,27.8-22.3,19.8-26.6c-8-4.3-28.8,16-28.8,16s-60.1,46.1-50.2,52.5
	S966.5,327.9,966.5,327.9z"/>
<path class="st2" d="M971.2,267.1h41.3c2.8-16.3,2.8-33,0-49.2h-41.3C975.8,234,975.8,251,971.2,267.1z"/>
<path class="st0" d="M1078.6,269.5c-12.4-21-37-22-37-22s-23.9-3.1-39.3,28.9c-14.3,29.8-34.1,58.5-3.2,65.5l5.6-17.4l3.5,18.7
	c4.4,0.3,8.8,0.4,13.2,0.2c33.1-1.1,64.6,0.3,63.5-11.6C1083.6,316.1,1090.5,289.6,1078.6,269.5z"/>
<path class="st4" d="M1012.6,398.7l-15.9,36.6l55.7,8.7c0,0,26.2-35.8,28.6-38.2L1012.6,398.7z"/>
<ellipse transform="matrix(0.1602 -0.9871 0.9871 0.1602 586.3168 1268.7538)" class="st4" cx="1038.8" cy="289.8" rx="29.4" ry="29.4"/>
<path class="st4" d="M1031.6,311.3c0,0,13.5,30.2,11.9,33.4s28.6-16.7,28.6-16.7s-12.7-21.5-11.9-24.6L1031.6,311.3z"/>
<path class="st4" d="M1076.2,324c0,0,23.9-13.5,37.4,23.9c0,0,44.5,52.5,36.6,62s-38.2-23.1-38.2-23.1l-19.1-19.9
	c0,0-27-7.2-24.6-22.3S1076.2,324,1076.2,324z"/>
<path class="st4" d="M1020.5,342.3l-55.7-15.9c0,0-29.4-11.9-28.6-4.8s54.1,47.7,71.6,45.3C1025.3,364.6,1020.5,342.3,1020.5,342.3z
	"/>
<path class="st5" d="M1052.3,336.7c0,0-18.3-2.4-22.3,1.6s-11.5,0.4-11.5,0.4l-12.7,23.1c0,0-9.1,13.1-2,25.8s-3.2,29.4-3.2,29.4
	s57.2,0,69.2,6.4s26.3-53.1,26.3-53.1s-14.8-18.1-10.8-29.2s1.6-19.9,1.6-19.9l-17.5,1.6L1052.3,336.7z"/>
<polygon class="st4" points="983.9,688.1 990.3,749.3 1014.9,736.6 1007,683.4 "/>
<polygon class="st4" points="1077,687.3 1097.6,742.7 1117.5,728.4 1092.9,674.6 "/>
<path class="st0" d="M1014.9,715.9c-1.3,4.5-3.1,8.8-5.6,12.7c-4,6.4-13.5,3.2-13.5,3.2s-11.1-8.7-13.5-4.8s-15.1,23.9-15.1,23.9
	s-42.1,35-6.4,40.5s42.9-20.7,42.9-20.7s27-9.5,27.8-19.1S1014.9,715.9,1014.9,715.9z"/>
<path class="st0" d="M1098.4,727.5c0,0-12.7-4-11.9,2.4s5.6,31.8,5.6,31.8s-8.7,35.8,15.9,29.4s25.4-40.5,25.4-40.5
	s12.7-45.3,3.2-46.1s-32.6-3.2-32.6-3.2S1118.3,724.4,1098.4,727.5z"/>
<polygon class="st0" points="1073.1,267.4 1048.8,254.7 1015.3,259.9 1008.4,290.5 1025.6,289.9 1030.4,278.6 1030.4,289.7 
	1038.4,289.4 1043,271.5 1045.9,290.5 1074.2,290 "/>
<path class="st0" d="M1061.1,441.7l-66.8-15.1c0,0-33.4,57.2-38.2,104.9s-26.2,162.2,8,163.8s54.1,1.6,55.7-1.6
	S1003,564.9,1003,564.9s39,154.2,60.4,143.9s45.3-23.9,44.5-31.8s-52.5-92.2-52.5-92.2l7.2-73.1c0,0,8.7-29.4-6.4-56.4L1061.1,441.7
	z"/>
<path class="st2" d="M1012.9,421.8h41.3c2.8-16.3,2.8-33,0-49.2h-41.3C1017.6,388.6,1017.6,405.7,1012.9,421.8z"/>
<path class="st4" d="M1133.4,386l-70-1.6c0,0-31-23.9-31.8-9.5s32.6,22.3,32.6,22.3s71.8,25.8,82.8,14.5L1133.4,386z"/>
<circle class="st2" cx="375.9" cy="174" r="23.9"/>
<circle class="st2" cx="439.5" cy="174" r="19.5"/>
<circle class="st2" cx="503.1" cy="174" r="11.9"/>
<circle class="st2" cx="769" cy="177" r="12.5"/>
<circle class="st2" cx="802.4" cy="177" r="10"/>
<circle class="st2" cx="835.8" cy="177" r="6.5"/>
<g>
	
		<rect x="539.6" y="425.6" transform="matrix(0.9998 -1.745324e-02 1.745324e-02 0.9998 -7.3802 10.7147)" class="st3" width="141.2" height="5.2"/>
	
		<rect x="539.9" y="442.2" transform="matrix(0.9998 -1.745324e-02 1.745324e-02 0.9998 -7.6699 10.7224)" class="st3" width="141.2" height="5.2"/>
	
		<rect x="540.2" y="458.9" transform="matrix(0.9998 -1.745324e-02 1.745324e-02 0.9998 -7.9613 10.7302)" class="st3" width="141.2" height="5.2"/>
	
		<rect x="495.1" y="430.6" transform="matrix(0.9998 -1.745324e-02 1.745324e-02 0.9998 -7.7164 8.9879)" class="st3" width="32" height="32"/>
</g>
<g>
	
		<rect x="539.6" y="488.3" transform="matrix(0.9998 -1.745324e-02 1.745324e-02 0.9998 -8.4745 10.7242)" class="st3" width="141.2" height="5.2"/>
	
		<rect x="539.9" y="504.9" transform="matrix(0.9998 -1.745324e-02 1.745324e-02 0.9998 -8.7641 10.732)" class="st3" width="141.2" height="5.2"/>
	
		<rect x="540.2" y="521.6" transform="matrix(0.9998 -1.745324e-02 1.745324e-02 0.9998 -9.0555 10.7398)" class="st3" width="141.2" height="5.2"/>
	
		<rect x="495.1" y="493.3" transform="matrix(0.9998 -1.745324e-02 1.745324e-02 0.9998 -8.8107 8.9975)" class="st3" width="32" height="32"/>
</g>
<g>
	
		<rect x="539.6" y="551" transform="matrix(0.9998 -1.745324e-02 1.745324e-02 0.9998 -9.5687 10.7338)" class="st3" width="141.2" height="5.2"/>
	
		<rect x="539.9" y="567.6" transform="matrix(0.9998 -1.745324e-02 1.745324e-02 0.9998 -9.8584 10.7415)" class="st3" width="141.2" height="5.2"/>
	
		<rect x="540.2" y="584.2" transform="matrix(0.9998 -1.745324e-02 1.745324e-02 0.9998 -10.148 10.7493)" class="st3" width="141.2" height="5.2"/>
	
		<rect x="495.1" y="556" transform="matrix(0.9998 -1.745324e-02 1.745324e-02 0.9998 -9.9049 9.0071)" class="st3" width="32" height="32"/>
</g>
<g>
	
		<rect x="539.6" y="613.7" transform="matrix(0.9998 -1.745324e-02 1.745324e-02 0.9998 -10.663 10.7433)" class="st3" width="141.2" height="5.2"/>
	
		<rect x="539.9" y="630.3" transform="matrix(0.9998 -1.745324e-02 1.745324e-02 0.9998 -10.9527 10.7511)" class="st3" width="141.2" height="5.2"/>
	
		<rect x="540.2" y="646.9" transform="matrix(0.9998 -1.745324e-02 1.745324e-02 0.9998 -11.2423 10.7588)" class="st3" width="141.2" height="5.2"/>
	
		<rect x="495.1" y="618.7" transform="matrix(0.9998 -1.745324e-02 1.745324e-02 0.9998 -10.9992 9.0166)" class="st3" width="32" height="32"/>
</g>
</svg>
